<svg xmlns="http://www.w3.org/2000/svg" viewBox="0 0 458.98 182.93"><title>Asset 6</title><g id="Layer_2" data-name="Layer 2"><g id="Layer_1-2" data-name="Layer 1"><path d="M252.77,0c9.09,6.82,11.1,17,12.72,27.25.47,3,.59,6,.91,9.45.67-.63,1.19-1,1.62-1.52,5.15-5.74,10.57-11.27,17.9-14.08,9.2-3.52,9.48-2,9.4,6.35-.1,9.55-4.15,17.85-9.57,25.53-.48.67-1,1.33-1.49,2a2.44,2.44,0,0,0-.07.5c.8,0,1.57,0,2.34,0,4.77.29,9.56.47,14.31,1a3,3,0,0,0,3.3-1.61c3.16-4.76,7.26-8.37,13-9.68,5.26-1.21,7.85.67,9.84,5.65,3.89,9.73-.17,17.13-6.7,23.6-6.07,6-12.53,5.56-18.45-.74-2.08,1.42-4.13,3-6.31,4.29-14.93,9.05-30.34,10.33-46.13,2.45-5.78-2.88-11.29-6.28-17-9.31a86.23,86.23,0,0,0-31.5-9.82,26.3,26.3,0,0,0-3.87,0,12.18,12.18,0,0,0-1.92.39c11,15,25.49,21,43.61,19A18.77,18.77,0,0,1,227.55,83c-12.81-.92-24.05-5.42-32.91-15-2.73-3-5.25-6.13-8.16-9.56a35.4,35.4,0,0,1,19-1.88c6.16.91,12.25,2.33,18.39,3.53-1.34-1.52-2.86-3.08-4.19-4.79-7.12-9.1-12-19-11.29-31,.3-4.92,1.19-5.55,6-4.33,6.69,1.69,11.73,6,16.68,10.51,1.84,1.67,3.78,3.24,5.58,4.77.38-2.61.69-5.85,1.35-9,2.08-10,5.85-19,14-25.72.11-.09.12-.32.18-.49ZM248,68.53l-.72.41c-1.58-2-3.34-3.89-4.71-6-3.74-5.82-5-12.41-5.78-19.17a5.66,5.66,0,0,0-1.22-3.22c-3.8-3.75-7.51-7.66-11.73-10.88-3.13-2.39-7-3.8-10.9-5.83a23.25,23.25,0,0,0-.33,3c.89,17,8.48,30.08,23.08,39a69.81,69.81,0,0,0,7,3.86c5.52,2.56,11.07,5.08,16.69,7.39a32.57,32.57,0,0,0,17.14,2A60.67,60.67,0,0,0,299,70.84a2.73,2.73,0,0,0,1.32-1.78c.15-2.71.07-5.44.07-8.51a44.47,44.47,0,0,0-18.15-1.26,10.37,10.37,0,0,0-3.42,1.46c-4.06,2.31-8,4.79-12.13,7-1.2.64-2.78.55-4.32.81l11.33-6.77-.44-.73a35.89,35.89,0,0,0-16.06,9.35c1.58-6.1,3.33-12.86,5.07-19.62l-1.2-.41-5.61,12.37a22.59,22.59,0,0,1,3.91-14.81c3.23-4.7,3.23-9.61,2.67-14.78A65.69,65.69,0,0,0,261,26.31c-1.49-6.91-3.86-13.44-8.65-19.48-.44.67-.71,1.15-1.06,1.58-7.41,9.24-10.39,20-11,31.62a6.37,6.37,0,0,0,1.08,2.74c1.83,3.62,4,7.11,5.45,10.86,1.09,2.77,1.34,5.88,2,8.84l-.65.12q-3.41-7.25-6.83-14.49l-.74.33C241.37,55.72,243.55,62.53,248,68.53Zm13.89-5.38c5.09-2,10.5-4.12,15.9-6.28a4.26,4.26,0,0,0,1.6-1c5.38-6,10.06-12.56,12.55-20.33a20,20,0,0,0,.79-7.84c-.3-3.16-1.59-3.69-4.54-2.57-8.93,3.36-15.71,9.47-21.43,16.91a2.91,2.91,0,0,0-.61,1.5C265.77,50.53,264.53,57.36,261.92,63.15Zm57.69-5.55c0-1.39-.47-3,.1-3.77a31.37,31.37,0,0,1,4.38-4.31c-1.22-1.75-2.9-2-5.81-.82-6.48,2.7-12.51,13.16-11.64,20.17.59,4.78,4.53,6.94,8.88,4.89,5.36-2.51,11.14-12.05,10.89-18-.08-2-1.15-2.76-2.84-1.69A33.53,33.53,0,0,0,319.61,57.6Z"/><path d="M459,60.42c-1.1,1.54-2.1,3.15-3.3,4.59-3.28,4-6.46,8-10,11.7a6,6,0,0,1-7.88,1.14c-2.83-1.73-3.21-4.64-2.45-7.35,1.38-5,3.3-9.76,4.95-14.65a16.83,16.83,0,0,0,1-5.33c-11.43,5.77-17,15.23-17.82,28-2.32-.64-4.49-1.14-4.58-3.77a44.07,44.07,0,0,1,.77-6.57,55,55,0,0,1-4.14,4.93,39.15,39.15,0,0,1-6,4.8,5.88,5.88,0,0,1-6.8-.25c-2-1.44-2.42-3.59-2.18-5.92.05-.44.08-.87.15-1.62-1.8,1.77-3.32,3.37-4.94,4.84-2.94,2.66-6.21,4.56-10.3,2.9-3.73-1.52-4.76-4.81-4.69-9.17-1.26,1.51-2.06,2.61-3,3.56a62.67,62.67,0,0,1-4.85,4.52c-2.29,1.88-4.89,2.71-7.69,1.14s-3.32-4.34-2.62-7c1.28-4.79,3.07-9.44,4.62-14.15a24.64,24.64,0,0,0,1.39-6.31c-11.55,5.82-17,15.46-17.72,28-4.17-1.07-5.17-2-4.37-5.49,1.21-5.38,3-10.62,4.57-15.91a35.36,35.36,0,0,0,1.5-6.49c-6,1.83-10.16,6.25-13,11.08s-3.95,10.93-5.84,16.54c-3.17-.63-4.42-1.9-3.54-5.19,1.75-6.58,3.86-13.07,5.89-19.57.68-2.2,1.67-4.3,2.29-6.52.56-2,1.61-1.93,3.07-1.15,2.47,1.31,3.42,3.4,2.84,6.76,1.42-1.21,2.57-2.32,3.84-3.24a31.57,31.57,0,0,1,4.67-2.94c2-1,4.14-1.76,6.16.14,1.77,1.67,2,3.08.89,6.48,2-1.68,3.76-3.38,5.74-4.71A15,15,0,0,1,371,45.68,6.52,6.52,0,0,1,375.39,47a3.41,3.41,0,0,1,1,4.45c-1.86,4.22-3.7,8.46-5.35,12.77a65.08,65.08,0,0,0-2.3,7.94,2.52,2.52,0,0,0,.48,2.2,2.66,2.66,0,0,0,2.25-.29,27.82,27.82,0,0,0,11.34-12.53,34.59,34.59,0,0,1,9.57-12.38c3.55-2.83,7.51-4.77,12.24-4.14s7.23,6.19,4.42,10.51c-.39-1.44-.74-2.48-1-3.54-.72-3.39-2.37-4.66-5.74-3.79a12.74,12.74,0,0,0-5.07,2.62,28.06,28.06,0,0,0-9.41,17.1c-.25,1.73.35,4.32,1.56,5.36,1.71,1.47,4,.3,5.77-1.1,4.92-3.91,7.41-7.81,10.64-16.64,4.33.38,6.21,3.4,4.65,7.38-1,2.67-2.1,5.33-2.87,8.08-.28,1,.24,2.22.4,3.35,1-.2,2.32-.08,3.08-.65a38.25,38.25,0,0,0,5.72-5.13c5.18-5.91,7.51-13.26,10-20.49.33-1,.69-1.88,1-2.77,4.26.48,6.11,3,5.13,7.23,2-1.59,3.68-3.2,5.62-4.46a18.37,18.37,0,0,1,5.46-2.55,4.38,4.38,0,0,1,5,6c-1.72,4.38-3.74,8.64-5.45,13A55.22,55.22,0,0,0,441.56,72a7.26,7.26,0,0,0,.38,2.54c.87-.19,2-.1,2.55-.61,3-2.7,6-5.43,8.7-8.39,1.41-1.53,2.19-3.64,3.47-5.32.42-.55,1.53-.59,2.32-.87Z"/><path d="M0,56.54C2.34,51.47,4.09,46,7.13,41.39c9.84-15,23.73-23.13,41.93-23.23a27.75,27.75,0,0,1,5.24.33c11.4,2.2,16.58,11.06,13,22.34-2,6.56-6.18,11.67-11.5,15.91-10.1,8-22.87,11.76-35,9.9-2.1,6.71-4.23,13.53-6.42,20.55-1.65-1.65-3.39-3.52-2.83-6.18,1.06-5,2.39-10,3.75-15,.39-1.43.51-2.38-.65-3.63a12.7,12.7,0,0,1-2.37-4.59c-.26-.77.29-1.8.47-2.72l.7.11,3.24,6.32c2.89-6,5.38-11.6,8.31-17,3.38-6.24,7.18-12.25,10.72-18.41,1-1.8,2.05-2,3.7-.76,3.3,2.48,3.61,4.17,1.06,7.48A153.93,153.93,0,0,0,22,64.82a48.59,48.59,0,0,0,6.31,0c14.4-2.1,25.27-9.24,31.69-22.56a20.49,20.49,0,0,0,1.48-11.92,8.57,8.57,0,0,0-4.93-6.93,23.12,23.12,0,0,0-20.83-.12c-9.63,4.62-16.49,12.33-22.34,21-4.05,6-7.59,12.23-7.93,19.94C1.82,63.26,1.3,60.13,0,57.65Z"/><path d="M262.75,182.93a18.44,18.44,0,0,1-10.89-8.74c-3.41-5.86-2.38-11.56,3.63-14.63a65.51,65.51,0,0,1,16.59-5.79c5.06-1,8.46-2.7,9.13-8.19.18-1.49.92-2.92,1.1-4.52a74.55,74.55,0,0,1-5.12,6.44c-.88.9-2.94,1.87-3.64,1.44-1-.61-2.1-2.68-1.8-3.74,1.41-4.94,3.2-9.78,5.07-14.57.25-.66,1.74-.83,2.65-1.23.35.94,1.17,2,1,2.79-.72,2.66-1.8,5.22-2.75,7.81-.54,1.46-1.1,2.9-1.64,4.34l.63.43a58.87,58.87,0,0,0,4.16-5.09c2-3,3.56-6.26,5.57-9.23.61-.92,2-1.29,3.1-1.91.22,1.29.92,2.72.58,3.85-1.68,5.75-3.62,11.42-5.46,17.12a8.29,8.29,0,0,0-.2,1.23c9.41-.62,18.66-2.15,28.64-2.65-1.68,3-3.67,3.1-5.7,3.21-7.27.41-14.53.87-21.79,1.26-1.68.09-2.34,1-2.84,2.45-1.77,5.23-3.57,10.46-5.56,15.61-2.41,6.23-6.25,11-13.31,12.31Zm15.57-29.11c-.8.1-1.34.11-1.84.23-4.31,1-8.65,1.91-12.9,3.12a28.06,28.06,0,0,0-6.84,2.89c-6.05,3.68-6.73,8.95-2.05,14.27a17.68,17.68,0,0,0,1.57,1.55c5.31,4.75,10.56,4.45,14-1.75,3.16-5.65,5.15-12,7.62-18A12.43,12.43,0,0,0,278.32,153.82Z"/><path d="M152.9,35.41l13.19-1.07c.24,2.73-.67,3.76-3.06,3.81-3.41.08-6.82.33-10.2.7a3.41,3.41,0,0,0-2.42,1.42Q143.85,54,137.57,67.85a15.22,15.22,0,0,0-1,4.29c-.24,1.9.6,3,2.58,2.16A12.23,12.23,0,0,0,142.86,72a41.73,41.73,0,0,0,10.26-15.25c1.5-3.75,2.75-7.6,4.11-11.38,4.29.19,6.39,3.32,4.84,7-2.35,5.61-4.77,11.2-6.89,16.89-.54,1.47-.06,3.31-.05,5,1.74-.58,3.85-.73,5.17-1.82a37.19,37.19,0,0,0,10.4-14.8,98.08,98.08,0,0,0,3.6-10.74c.58-2,1.61-2,3.06-1.18,2.83,1.51,3.68,3.73,2.47,6.63-4.94,11.82-9.9,23.64-15,35.72l10.9,7.19c-2.89,3.06-4.88,3.29-7.87,1.18L162,92.31l-2,2.59c-5.94,7.53-13.63,10.77-23.16,9.35-7.77-1.15-10.51-7.68-5.87-14a16.51,16.51,0,0,1,13.82-7c4.72,0,9.44.92,14.83,1.5,1.94-4.31,4.17-9.29,6-13.46-1.44,1.2-3.4,2.83-5.37,4.45a11.63,11.63,0,0,1-1.53,1.19c-2.42,1.43-5,2.95-7.73,1.12s-2.58-4.68-2.07-7.53c.11-.63.18-1.26.37-2.66A35.93,35.93,0,0,1,145.84,72c-2.47,2.16-4.84,4.68-7.72,6.06-4.3,2.07-7.24-.12-7.36-4.88,0-1.64.22-3.28.37-5.28a38.91,38.91,0,0,1-3.89,4.77,33.13,33.13,0,0,1-7.19,5.44c-4,1.94-6.94,0-7.32-4.44a40.5,40.5,0,0,1,.35-5.88c-2,2.16-3.63,4.16-5.45,6a15.71,15.71,0,0,1-10.78,5c-7.91.32-10.65-1.83-12.18-9.89a26.65,26.65,0,0,1-3.6,3.83c-2.9,2.05-5.78,4.4-9,5.58C67.41,80,64,77,64.76,72.12a19.63,19.63,0,0,1,2.55-6.91c1.87-3.16,4.25-6,6.38-9,.79-1.1,1.5-2.25,2.49-3.75-4.45.51-8.65.16-10.61,5-.67,1.66-2,3-3.11,4.54l-.8-.42A5.85,5.85,0,0,1,62,60c.91-1.61,1.88-3.18,2.86-4.74s1.82-2.7,1.13-4.75c-.38-1.15.46-2.86,1.09-4.14,1.09-2.22,2.46-4.31,3.75-6.52,2.41.78,4.09,2.13,3.39,4.63-.54,1.94-1.85,3.66-2.47,6.07C75.45,49,79.12,47.41,82.85,46a3.22,3.22,0,0,1,2.78.19c.67.67,1.25,2.3.88,3a81.41,81.41,0,0,1-5.34,8.35c-2.2,3.07-4.61,6-6.85,9A11.61,11.61,0,0,0,72.51,70c-.28,1-.41,2.62.09,3a3.89,3.89,0,0,0,3.27.26,21.11,21.11,0,0,0,10.54-10.9C89.53,55.43,94,49.84,101,46.7a19.14,19.14,0,0,1,5.29-1.49c5-.63,7.59,2.93,5.44,7.47A28.22,28.22,0,0,1,98.45,65.92c-1,.49-2,.85-3,1.33-1.35.66-3.44.45-3,3.07s1.94,5.17,4.23,5.05a17,17,0,0,0,7.29-1.86c5.13-2.89,8.58-7.57,11.25-12.69,3.14-6,5.93-12.24,9.18-19L116,45.49l-.41-.74a7.27,7.27,0,0,1,1.07-1.32A7.47,7.47,0,0,1,119,42c7.24-2,9.6-7.82,11.6-14.09.41-1.27,0-3.88,2.84-2.87,2.68.95,4.28,3.55,3.47,5.73-.57,1.52-1.31,3-2.07,4.7,3.6-.34,6.89-.57,10.15-1,.67-.09,1.44-1,1.75-1.75.9-2.11,1.54-4.34,2.4-6.48.23-.56.89-1.28,1.39-1.32,2.6-.21,5.25,3.56,4.31,6.06C154.28,32.39,153.6,33.8,152.9,35.41Zm-9.55,3.09-.09-.54c-2.91.29-5.86.46-8.74,1a3.94,3.94,0,0,0-2.36,1.91c-3.42,6.74-6.82,13.49-10,20.36a73.79,73.79,0,0,0-3.41,9.91c-.27.93.2,2.08.33,3.13,1.13-.17,2.55,0,3.34-.58,2.16-1.68,4.66-3.35,6-5.63,4.73-8.3,9-16.84,13.48-25.3,0-.08-.17-.28-.28-.45l-7.71,3.18-.58-1.26Zm13.43,51A25.48,25.48,0,0,0,141.22,88a28.79,28.79,0,0,0-7.78,3.3c-2.25,1.31-3,3.7-2.51,6.27A5.44,5.44,0,0,0,135.7,102a16.63,16.63,0,0,0,6,.19C148.82,100.75,152.81,95.46,156.78,89.49ZM92.48,66.23c7.74-2.4,13.25-6.46,16.66-13,.62-1.19.25-2.9.34-4.37-1.4.11-3-.19-4.16.39C98.49,52.62,95.18,58.75,92.48,66.23Z"/><path d="M332.24,138.77c1.58-2.62,3.31-5.17,4.7-7.89,1.17-2.29,1.77-4.87,3-7.13.45-.86,1.91-1.17,2.92-1.74.29,1.1,1.05,2.34.78,3.28-.92,3.18-2.25,6.24-3.33,9.37a30.64,30.64,0,0,0-.7,4,14.1,14.1,0,0,0,2.39-2c2.83-4.4,5.64-8.81,8.32-13.29.78-1.28,1.43-2.56,3.12-1.93s1.44,2.07,1,3.5c-.91,2.88-1.76,5.79-2.63,8.69l.6.35c1.65-2.32,3.27-4.66,4.94-7a35.49,35.49,0,0,1,4.42-5.64c.93-.84,3.15-1.37,4.07-.83s1.62,2.68,1.42,4c-.56,3.59-1.64,7.11-2.52,10.66l.63.45a16.47,16.47,0,0,0,2.7-2.71c2.2-3.52,4.17-7.17,6.34-10.7a26.83,26.83,0,0,1,4-5.53c1.81-1.73,4.14-2.49,6.29-.51,3-7.38,5.87-14.71,8.87-22a36.23,36.23,0,0,1,2.78-5.4c1.12-1.78,2.65-2.82,5.18-1.26-7.35,16.75-15.43,33.28-17.18,51.92-3.26.23-3.66-1.07-3-11.17-1.66,2.82-3,5.26-4.52,7.62-.91,1.45-1.77,3.41-4,2.61s-2.05-2.8-1.73-4.71a2.58,2.58,0,0,0-.12-1.59c-1.16,1.63-2.21,3.34-3.5,4.86s-2.56,4-5,3-2.28-3.7-1.8-6.06a58.18,58.18,0,0,0,1.28-8.37,24.14,24.14,0,0,0-2.57,2.9c-2.14,3.34-4.13,6.78-6.24,10.14a12.1,12.1,0,0,1-2.36,3c-1.88,1.54-4.17.45-4.35-2a14.12,14.12,0,0,1,.17-2.75,7.84,7.84,0,0,0,.06-3c-.89,1.26-1.76,2.53-2.67,3.78a20.84,20.84,0,0,1-1.55,2c-3.59,4-5.36,3.67-7.25-1.55-.91,1.35-1.56,2.86-2.67,3.8s-2.77,1.75-3.73,1.39a4.07,4.07,0,0,1-1.9-3.46c1-5.42,2.34-10.79,3.86-16.09.24-.81,2.08-1.16,3.18-1.73.24,1.14.9,2.38.65,3.4-1.07,4.26-2.42,8.45-3.66,12.66Zm44.27-8.27c2.51-3.7,5.54-7.14,6.16-11.81C378.74,121.67,377.25,125.89,376.51,130.5Z"/><path d="M312.67,176.23c-3.18-1-4.47-3.25-3.73-7.32.81-4.53,1.75-9.06,2.92-13.51,4-15.15,8.11-30.27,12.18-45.4.19-.71.37-1.42.68-2.61a25.22,25.22,0,0,0-3.58.51c-4.82,1.44-9.6,3-14.41,4.42-.51.15-1.51,0-1.65-.28-.32-.64-.56-1.8-.21-2.16a6.36,6.36,0,0,1,2.94-1.84c5.12-1.14,10.27-2.22,15.45-3.07,1.81-.3,2.84-.93,3.22-2.73.25-1.17.88-2.27,1-3.43.42-3,2.42-3.5,5.39-3.5l-2.32,8.33,11.21-1.23c1.85-.2,3.33.12,3.45,2.74l-10.32.71c-5.39.38-5.5.35-6.84,5.7q-7.33,29.24-14.51,58.51C313.09,172.08,313,174.18,312.67,176.23Z"/><path d="M257.64,145.2c2.66,1.31,4.14.41,5.2-1.53a19.88,19.88,0,0,0,2.55-12.21,32,32,0,0,0-3,2.34c-4.39,4.38-6.78,9.76-8,15.78-.7,3.38-1.66,3.93-5.54,3.84,1.86-6.86,3.54-13.7,5.59-20.43,2.65-8.72,5.5-17.38,8.45-26,1.16-3.37,2.63-4,5.5-3.09q-5.16,15.47-10.34,30.94l.62.27c1.24-1.78,2.25-3.8,3.77-5.28,1.19-1.15,3.26-2.52,4.5-2.18s2.6,2.59,2.8,4.14c.67,5.19-.36,10.16-3.85,14.25C263.09,149.32,259.82,149.05,257.64,145.2Z"/><path d="M414.83,117.19c-3.69,6.73-7.49,13.47-14.53,17.37-4.86,2.68-9.47-.3-9.58-5.84-.13-6.71,3.21-11.56,8.47-15.3a3.94,3.94,0,0,1,2.27-.91c1.52.14,3.48.21,4.33,1.15.59.66.12,3.25-.74,4a42.94,42.94,0,0,1-7.54,5.4c-2,1.16-3.59,5.66-2,7.29a3.69,3.69,0,0,0,3,.7c4.8-1,8.12-4.19,11.07-7.81,1.7-2.08,3.17-4.36,4.74-6.55Zm-11.1-.46-.77-1-5.62,4.9.74.86Z"/><path d="M333.27,116c-.94-1.21-1.95-2-1.94-2.66a2.48,2.48,0,0,1,1.78-1.76,2.66,2.66,0,0,1,1.9,1.75C335.11,114,334.12,114.81,333.27,116Z"/><path d="M342.79,112.35c-1.28,1-2,2-2.69,1.94s-1.38-1.06-2.07-1.65c.59-.64,1.13-1.72,1.79-1.8S341.37,111.58,342.79,112.35Z"/></g></g></svg>