<?xml version="1.0" encoding="utf-8"?>
<!-- Generator: Adobe Illustrator 23.0.4, SVG Export Plug-In . SVG Version: 6.00 Build 0)  -->
<svg version="1.1" id="Layer_1" xmlns="http://www.w3.org/2000/svg" xmlns:xlink="http://www.w3.org/1999/xlink" x="0px" y="0px"
	 viewBox="0 0 560 288" style="enable-background:new 0 0 560 288;" xml:space="preserve">
<style type="text/css">
	.st0{fill:#FFFFFF;}
</style>
<path class="st0" d="M2,116.4c2.8-6.2,5-12.8,8.7-18.4C22.6,79.9,39.5,70,61.6,69.8c2.1,0,4.3,0,6.4,0.4
	c13.8,2.7,20.1,13.4,15.8,27.1c-2.5,8-7.4,14.3-14,19.3c-12.3,9.2-25.9,14.6-42.5,12.1c-2.5,8.1-5.1,16.4-7.8,24.9
	c-2-2-4.1-4.3-3.4-7.5c1.3-6.1,2.9-12.2,4.6-18.2c0.5-1.7,0.6-2.9-0.8-4.4c-1.4-1.5-2.2-3.6-2.9-5.6c-0.3-0.9,0.4-2.2,0.6-3.3
	c0.3,0,0.6,0.1,0.9,0.1c1.3,2.4,2.5,4.9,3.9,7.7c3.5-7.2,6.5-14.1,10.1-20.6c4.1-7.6,8.7-14.9,13-22.3c1.3-2.2,2.5-2.4,4.5-0.9
	c4,3,4.4,5.1,1.3,9.1c-9,11.7-16.2,24.4-22.6,38.9c2.9,0,5.3,0.3,7.7,0c17.5-2.5,30.7-11.2,38.5-27.4c2.2-4.6,2.5-9.5,1.8-14.5
	c-0.5-3.8-2.5-6.8-6-8.4c-8.4-4-16.9-4.2-25.3-0.1c-11.7,5.6-20,15-27.1,25.5c-4.9,7.3-9.2,14.9-9.6,24.2c-4.3-1.1-5-4.9-6.6-7.9
	C2,117.3,2,116.9,2,116.4z"/>
<path class="st0" d="M321,269.9c-5.8-1.8-10.2-5.4-13.2-10.6c-4.1-7.1-2.9-14,4.4-17.8c6.3-3.2,13.2-5.6,20.1-7
	c6.1-1.3,10.3-3.3,11.1-9.9c0.2-1.8,1.1-3.5,1.3-5.5c-2,2.6-3.9,5.4-6.2,7.8c-1.1,1.1-3.6,2.3-4.4,1.8c-1.2-0.8-2.5-3.3-2.2-4.5
	c1.7-6,3.9-11.9,6.1-17.7c0.3-0.8,2.1-1,3.2-1.5c0.4,1.1,1.4,2.4,1.2,3.4c-0.9,3.2-2.2,6.3-3.3,9.5c-0.6,1.8-1.3,3.5-2,5.3
	c0.3,0.2,0.5,0.3,0.8,0.5c1.7-2.1,3.6-4,5.1-6.2c2.4-3.7,4.3-7.6,6.8-11.2c0.7-1.1,2.5-1.6,3.8-2.3c0.3,1.6,1.1,3.3,0.7,4.7
	c-2.2,7.4-4.7,14.7-7.2,22.3c11.7-0.8,22.9-2.6,35.1-3.2c-2,3.6-4.4,3.8-6.9,3.9c-8.8,0.5-17.6,1.1-26.5,1.5c-2,0.1-2.8,1.2-3.4,3
	c-2.2,6.4-4.3,12.7-6.8,19c-2.9,7.6-7.6,13.4-16.2,14.9C321.9,269.9,321.5,269.9,321,269.9z M340.5,235.1c-0.4-0.3-0.8-0.7-1.2-1
	c-7,1.9-14.1,3.5-21,5.7c-2.7,0.8-5.2,2.6-7.4,4.5c-3.9,3.4-4.6,8-1.6,12.3c1.6,2.4,3.7,4.5,6,6.3c4.6,3.6,9.3,3.1,13.1-1.3
	c2.1-2.4,3.8-5.3,5.1-8.2C336,247.4,338.2,241.2,340.5,235.1z"/>
<path class="st0" d="M192.9,102.9c5.4,0.4,7.7,4.1,5.7,8.9c-2.8,6.7-5.7,13.4-8.2,20.2c-0.7,1.8,0,4,0,6c2-0.7,4.5-0.8,6-2.1
	c6-4.8,10-11.2,12.9-18.2c1.8-4.2,3.1-8.6,4.4-13c0.6-2.1,1.7-2.4,3.4-1.5c3.5,1.7,4.7,4.6,3.2,8.2c-6,14.4-12,28.7-18.1,43.3
	c4.1,2.7,8.7,5.7,13.3,8.8c-3.7,3.7-6,4-9.6,1.4c-2-1.4-4-2.8-6.1-4.2c-0.3-0.2-0.6-0.3-1.2-0.7c-0.8,1-1.6,2-2.4,3.1
	c-7.2,9.1-16.6,13.1-28.1,11.3c-9.3-1.4-12.7-9.2-7.3-16.8c4.1-5.8,10.1-8.7,17-8.7c5.7,0,11.5,1.1,18,1.8
	c2.4-5.3,5.1-11.3,7.3-16.2c-1.7,1.4-4.1,3.4-6.5,5.3c-0.5,0.4-1,0.9-1.6,1.2c-3,1.9-6.3,3.8-9.7,1.5c-3.2-2.2-3.1-5.7-2.5-9.2
	c0.1-0.8,0.2-1.5,0.4-3.2c-1.7,2.1-2.7,3.8-4.2,5.1c-3.2,2.7-6.3,5.8-10,7.5c-4.5,2.1-7.9-0.5-8.2-5.5c-0.1-2.2,0.2-4.4,0.3-6.9
	c-1.7,2.1-3.1,4.3-4.9,6c-2.5,2.3-5.2,4.8-8.2,6.2c-5.1,2.5-8.9,0-9.2-5.7c-0.1-2.1,0.3-4.2,0.5-6.8c-2.4,2.6-4.4,4.9-6.5,7.2
	c-4.9,5.2-11.1,7-18,6.2c-5.8-0.6-8.4-3.7-10.1-12.1c-2.7,2.7-4.8,5.6-7.7,7.6c-2.7,1.9-6,3.5-9.3,4.2c-4.5,0.9-7.8-2.3-7.2-6.9
	c0.4-3.1,1.5-6.4,3-9.1c2.3-4,5.3-7.5,7.9-11.3c0.9-1.3,1.8-2.7,3-4.5c-3.3,0.4-6.1,0.6-8.8,1.1c-0.6,0.1-1.2,0.9-1.6,1.5
	c-1.5,2.2-2.9,4.5-4.5,6.7c-0.6,0.8-1.3,1.5-2,2.3c-0.3-0.2-0.5-0.3-0.8-0.5c0.2-0.6,0.2-1.4,0.5-1.9c1.3-2.3,2.9-4.5,4.1-6.9
	c0.6-1.1,0.4-2.6,0.7-3.9c0.2-1.5,0.2-3.2,0.8-4.5c1.5-3.1,3.3-6,5-9c5.5,2.2,5.5,3.1,1.2,12.9c4.5-1.9,9.1-3.6,13.5-5.7
	c1.9-0.9,3.2-0.6,3.9,0.8c0.6,1.2,0.8,3.1,0.2,4.2c-1.9,3.3-4.2,6.3-6.4,9.4c-3.2,4.6-6.7,9-9.7,13.7c-0.8,1.2-0.4,3.3-0.5,4.9
	c1.8-0.1,3.8,0.2,5.3-0.5c5.3-2.8,9.1-7.2,11.6-12.6c3.8-8.3,9.2-15.1,17.7-18.9c2-0.9,4.2-1.5,6.4-1.8c6-0.8,9.2,3.6,6.5,9.1
	c-3.5,7.2-9,12.5-16.2,16c-1.2,0.6-2.5,1-3.7,1.6c-1.5,0.8-4,0.4-3.6,3.4c0.4,3.3,2.2,6.4,4.9,6.4c2.9,0,6.3-0.4,8.6-1.9
	c3.7-2.5,7.6-5.6,9.9-9.3c5.6-9.2,10.4-19,15.4-28.5c-0.2-0.2-0.4-0.5-0.7-0.7c-3.2,1.4-6.4,2.8-9.5,4.2c-0.2-0.4-0.5-0.9-0.7-1.3
	c1.5-1,2.8-2.5,4.4-2.9c8.8-2.4,11.6-9.6,14.1-17.2c0.5-1.5-0.1-4.4,3.2-3.5c3.1,0.9,5.4,4.2,4.6,6.8c-0.7,1.9-1.6,3.7-2.6,6
	c4.6-0.5,8.8-0.8,13-1.4c0.6-0.1,1.2-1.2,1.5-2c1-2.5,2-5,2.7-7.6c0.6-2.3,1.8-2.2,3.5-1.4c3.7,1.7,4.7,4.5,3.1,8.2
	c-0.6,1.3-1.2,2.6-1.8,4.1c5.5-0.4,10.7-0.9,16.1-1.3c0.3,3.4-0.9,4.6-3.8,4.6c-4.1,0.1-8.3,0.4-12.4,0.8c-1,0.1-2.5,0.9-2.9,1.8
	c-5.3,11-10.4,22.1-15.5,33.2c-0.8,1.7-1.1,3.7-1.3,5.5c-0.3,2.3,0.8,3.6,3.2,2.6c1.7-0.7,3.4-1.7,4.8-3c5.4-5.2,9.4-11.4,12.2-18.3
	C189.7,112.1,191.3,107.5,192.9,102.9z M176,94.5c0-0.2,0-0.4,0-0.7c-3.6,0.4-7.3,0.6-10.9,1.2c-1,0.2-2.1,1.2-2.6,2.2
	c-4.2,8.4-8.4,16.8-12.4,25.3c-1.6,3.4-2.7,7.1-3.7,10.8c-0.4,1.4,0.2,3.1,0.4,4.7c1.6-0.4,3.5-0.4,4.6-1.3c2.5-2,5.3-4.1,6.8-6.8
	c5.6-9.9,10.7-20.1,16-30.2c0.1-0.1-0.1-0.4-0.3-0.7c-3.1,1.3-6.3,2.6-9.4,4c-0.3-0.5-0.5-1-0.8-1.6C167.9,99.2,171.9,96.8,176,94.5
	z M192.3,156.5c-6.5-2.7-12.9-3.4-19.2-1.8c-3.4,0.8-6.7,2.5-9.6,4.3c-2.6,1.6-3.6,4.8-2.4,7.4c1,2.1,3.2,4.1,5.3,4.9
	c2.2,0.9,5.1,0.9,7.6,0.4C182.7,170.1,187.5,163.7,192.3,156.5z M114.3,128.2c9.5-2.9,16.3-8,20.4-16.2c0.7-1.3,0.3-3.2,0.4-4.7
	c-1.6,0-3.4-0.5-4.7,0.1C121.8,111.4,117.6,118.9,114.3,128.2z"/>
<path class="st0" d="M347.1,114.5c7.2,0.7,14.2,1.4,21.3,1.9c0.9,0.1,1.9-1.1,2.7-1.9c3.7-3.3,7.2-6.9,11.1-10
	c1.4-1.1,3.5-1.5,5.3-1.9c6.1-1.2,9.1,1.1,11.4,6.8c4.4,10.7,0.4,19.3-6.3,27.1c-7.8,8.9-15.9,9-23.9,1.2c-5.7,3.2-11.1,7-17.1,9.5
	c-15.6,6.5-31.3,6.3-46.5-1.5c-8.6-4.4-16.8-9.5-25.4-13.7c-10.6-5.2-21.9-8.6-33.7-9.7c-2.2-0.2-4.4,0-7.5,0
	c13.5,18.7,31.1,25.9,53.3,23.2c-2.4,2.3-7.5,3.6-13,3.2c-15-1-28.5-6-39.2-16.9c-3.8-3.9-7.2-8.2-11.3-12.9c8-3.2,15.5-3.4,23-2.4
	c7.5,1.1,14.9,2.8,22.6,4.3c-0.6-0.7-1.3-1.4-2-2.1c-9.5-10.4-16-22.1-17-36.4c-0.2-2.4,0.2-4.9,0.3-7.4c0.2-2.9,2-4,4.5-3.2
	c4,1.3,8.4,2.3,11.7,4.7c6.3,4.4,11.9,9.7,17.8,14.6c1.7-16,5.4-31.5,19.7-43.3c2.5,2.9,5.4,5.4,7.4,8.5c6,9.6,7.7,20.4,8.6,31.5
	c0.1,1.5,0.1,3,0.3,5.3c2-2.2,3.5-3.8,5-5.4c5.5-5.7,11.3-11.1,18.7-13.9c11.3-4.3,11.7-2.5,11.5,7.9c-0.2,11.5-5,21.4-11.5,30.7
	C348.4,112.9,347.7,113.8,347.1,114.5z M303.2,131c-0.2,0.2-0.5,0.3-0.7,0.5c-1.9-2.3-4.1-4.5-5.7-7.1c-4.7-7.1-6.3-15.2-7.2-23.6
	c-0.1-1.4-0.6-3-1.5-3.9c-4.6-4.6-9.1-9.3-14.2-13.2c-3.8-2.9-8.5-4.6-13.2-7.1c-0.2,1.9-0.4,2.8-0.4,3.7
	c1,20.5,10.2,36.3,27.7,47.1c2.8,1.8,5.7,3.4,8.8,4.9c6.7,3.1,13.4,6.2,20.3,9c6.7,2.7,13.7,3.4,20.8,2.4c9.8-1.4,18.8-5,27.3-10
	c0.7-0.4,1.6-1.4,1.6-2.2c0.2-3.3,0.1-6.6,0.1-10.3c-6.9-1.9-14.4-2.6-22-1.5c-1.4,0.2-2.8,1-4.2,1.8c-4.9,2.8-9.7,5.8-14.7,8.5
	c-1.4,0.8-3.4,0.7-5.2,1c4.8-2.9,9.3-5.5,13.7-8.2c-0.2-0.3-0.4-0.6-0.5-0.9c-7.8,2.3-14.7,6.2-19.5,11.4c1.9-7.4,4-15.6,6.2-23.8
	c-0.5-0.2-1-0.3-1.5-0.5c-2.2,5-4.5,10-7.1,15.7c0-1.9-0.3-3.2,0-4.2c1.5-4.9,2.4-10.2,5.1-14.4c3.7-5.8,3.8-11.7,3.2-18
	c-0.3-2.8-0.7-5.6-1.3-8.3c-1.8-8.4-4.7-16.3-10.5-23.7c-0.4,0.8-0.7,1.3-1,1.7c-9.2,11.2-12.8,24.5-13.6,38.6
	c-0.1,1.1,0.8,2.3,1.3,3.3c2.2,4.4,4.8,8.6,6.6,13.2c1.3,3.4,1.6,7.1,2.4,10.7c-0.3,0-0.5,0.1-0.8,0.1c-2.8-5.9-5.5-11.7-8.3-17.6
	c-0.3,0.1-0.6,0.3-0.9,0.4C295.1,115.4,297.7,123.7,303.2,131z M320,124.4c6.2-2.4,12.8-5,19.4-7.6c0.7-0.3,1.4-0.7,1.9-1.3
	c6.5-7.2,12.1-15.1,15.1-24.4c1-3.2,1.3-6.8,1-10.2c-0.3-3.5-1.9-4-5.2-2.8c-11,4-19.3,11.5-26.3,20.7c-0.3,0.4-0.6,1-0.7,1.5
	C324.7,109,323.2,117.4,320,124.4z M395.8,108.2c-2-2.4-4-2.7-7.5-1.2c-7.7,3.3-14.9,15.8-14,24.3c0.7,6.1,6,9.1,11.2,5.9
	c7.9-4.8,11.7-12.3,12.8-21.3c0.1-0.8-0.4-2.2-1-2.5c-0.7-0.3-2,0-2.8,0.5c-1.5,1.1-2.7,2.4-4.1,3.7
	C389.1,112.8,389.7,111.8,395.8,108.2z"/>
<path class="st0" d="M521.5,102.6c5.4,1.1,7.2,3.7,6.5,8.2c3.7-2.3,7.6-5.2,11.8-7.3c3.2-1.6,5.8-0.5,7.2,2.7
	c0.6,1.2,0.6,3.1,0.1,4.4c-1.9,4.9-4.2,9.7-6,14.6c-1.2,3.1-2.1,6.4-2.9,9.6c-0.3,1.1,0.2,2.3,0.3,3.5c1.2-0.3,2.8-0.2,3.7-1
	c3.5-3.2,7-6.5,10.2-10.1c1.6-1.8,2.6-4.2,4-6.2c0.5-0.7,1.4-1.1,2.1-1.7c0.4,0.4,0.9,0.9,1.3,1.3c-4.7,6.1-9.3,12.2-14,18.2
	c-0.8,1-2,1.8-3.1,2.5c-2.8,2-5.8,3-9.1,1.1c-3.2-1.9-3.9-5.1-3.1-8.2c1.3-5.3,3.2-10.4,4.9-15.6c1-3,2.1-6,2.6-9.3
	c-7.4,2.3-12.4,7.6-15.9,13.5c-3.5,6-4.8,13.3-7.1,20.1c-4.5-1-4.7-1.5-3.6-12.3c-1.4,1.8-2.2,3.2-3.4,4.3c-2.9,2.6-5.7,5.4-8.8,7.6
	c-2.5,1.8-5.6,1.7-8.2-0.2c-2.6-1.8-3.1-4.5-2.7-7.5c0.1-0.4,0.1-0.9,0.1-1.4c-3.1,2.7-5.9,5.6-9.2,7.9c-4,2.9-9,2.8-11.7-0.4
	c-2-2.3-2.9-5.5-4.2-8.3c-1.7,1.8-3.9,4.3-6.3,6.6c-4.7,4.4-8.5,5.4-12,3.3c-3.2-1.9-4.2-5.9-2.4-11.9c1.6-5.2,3.8-10.3,5.7-15.4
	c0.7-1.8,1-3.8,0.9-5.9c-13.9,7-20.5,18.7-21.4,33.9c-5-1-6.3-2.3-5.3-6.8c1.4-6.4,3.6-12.7,5.5-19c0.8-2.6,1.6-5.2,1.7-8.1
	c-13.9,7-20.8,18.5-21.6,33.7c-4.9-0.7-6.5-2.4-5.4-6.6c1.8-7,3.9-14,6.1-20.9c1.3-4.2,3.1-8.4,4.6-12.5c5,0.6,7,3.3,6.6,7.8
	c3.7-2.3,7.6-5.2,11.9-7.2c3.3-1.6,6.6,0.2,7.5,3.8c0.4,1.5-0.3,3.1-0.3,3.8c3.8-2.3,8-5.2,12.4-7.6c2.8-1.5,5.4-0.4,6.8,2.4
	c0.7,1.3,0.8,3.3,0.3,4.7c-2,5.2-4.4,10.3-6.4,15.5c-1.2,3.1-2.1,6.4-2.7,9.7c-0.5,2.8,0.7,3.6,3.2,2.2c6.3-3.5,10.7-8.8,13.8-15.2
	c3.6-7.4,8.4-13.8,15.8-17.8c3.9-2.2,8.1-3.3,12.6-1.9c4.4,1.4,6.6,8.5,3.2,12.2c-0.4-1.7-0.6-3.1-0.9-4.4c-0.8-3.8-2.7-5.3-6.5-4.4
	c-2.3,0.5-4.8,1.6-6.5,3.2c-6.3,5.6-10.3,12.7-11.6,21c-0.3,2,0.4,5,1.8,6.2c2.1,1.8,4.9,0.5,7-1.2c6.2-4.9,9.8-10.4,12.9-20.2
	c5,0.1,7.7,4,5.9,8.5c-1.4,3.7-2.9,7.3-3.8,11.1c-0.8,3.3,0.9,4.5,3.7,2.7c2.8-1.8,5.4-4,7.6-6.5c6.3-7,9-15.9,12.2-24.5
	C520.6,105.4,521,104.1,521.5,102.6z"/>
<path class="st0" d="M489.5,154.1c-9,20.4-18.7,40.4-20.9,63c-4,0.3-4.4-1.3-3.7-13.6c-2,3.4-3.7,6.4-5.5,9.2
	c-1.1,1.8-2.2,4.1-4.8,3.2c-2.7-1-2.5-3.4-2.1-5.7c0.1-0.5,0.2-1.1-0.1-1.9c-1.4,2-2.7,4.1-4.2,5.9c-1.6,1.9-3.1,4.9-6.1,3.6
	c-3.1-1.3-2.8-4.5-2.2-7.4c0.7-3.3,1.3-6.5,1.6-10.2c-1.1,1.2-2.3,2.2-3.1,3.5c-2.6,4.1-5,8.2-7.6,12.3c-0.8,1.3-1.7,2.7-2.9,3.7
	c-2.3,1.9-5.1,0.5-5.3-2.4c-0.1-1.1,0.1-2.2,0.2-3.3c0.1-1.1,0.4-2.2,0.1-3.6c-1.1,1.5-2.1,3.1-3.2,4.6c-0.5,0.7-1.1,1.4-1.7,2.1
	c-4.5,5.2-6.7,4.8-9-1.6c-1.1,1.6-1.9,3.5-3.2,4.6c-1.2,1-3.4,2.1-4.5,1.7c-1.2-0.5-2.6-2.9-2.3-4.2c1.2-6.6,2.8-13.1,4.7-19.5
	c0.3-1,2.5-1.4,3.9-2.1c0.3,1.4,1.1,2.9,0.8,4.1c-1.3,5.2-2.9,10.3-4.4,15.4c0.5,0.3,1,0.5,1.5,0.8c1.9-3.1,4.1-6,5.7-9.2
	c1.5-2.9,2.2-6.1,3.7-9c0.5-1,2.3-1.4,3.5-2.1c0.4,1.3,1.3,2.8,1,4c-1.1,3.9-2.7,7.6-4,11.4c-0.4,1.2-0.5,2.6-0.8,4.9
	c1.5-1.2,2.4-1.7,2.9-2.4c3.4-5.3,6.8-10.7,10.1-16.1c0.9-1.6,1.7-3.1,3.8-2.3c2.1,0.8,1.8,2.5,1.2,4.2c-1.1,3.5-2.1,7-3.2,10.5
	c0.2,0.1,0.5,0.3,0.7,0.4c2-2.8,4-5.7,6-8.4c1.7-2.3,3.2-4.9,5.4-6.8c1.1-1,3.8-1.7,4.9-1c1.2,0.7,2,3.3,1.7,4.8
	c-0.7,4.4-2,8.6-3.1,12.9c0.3,0.2,0.5,0.4,0.8,0.5c1.1-1.1,2.5-2,3.3-3.3c2.7-4.3,5.1-8.7,7.7-13c1.5-2.4,2.9-4.8,4.9-6.7
	c2.2-2.1,5-3,7.6-0.6c3.6-9,7.1-17.9,10.8-26.7c0.9-2.3,2.1-4.5,3.4-6.6C484.6,153.4,486.4,152,489.5,154.1z M459.1,206.1
	c3-4.5,6.9-8.5,7.4-14.3C461.8,195.4,460.1,200.6,459.1,206.1z"/>
<path class="st0" d="M381.6,261.8c-4.1-1.7-5.4-4.2-4.5-9.2c1.2-6.5,2.5-13,4.2-19.4c4.6-17.3,9.4-34.6,14.1-51.8
	c0.3-1,0.5-1.9,0.8-3.4c-7.3,1.2-14.2,2.2-20.6,5.3c-1.3,0.6-2.7,2.1-3.4,0c-0.3-0.9,0.7-3.3,1.6-3.6c4.3-1.4,8.8-2.4,13.3-3.4
	c2.6-0.6,5.4-0.6,7.9-1.4c1.2-0.4,2.5-1.5,3.2-2.7c0.8-1.3,1.1-2.9,1.5-4.4c1-3.7,1.8-4.2,6.5-4.3c-0.9,3.3-1.8,6.4-2.8,10
	c5-0.5,9.4-1.1,13.8-1.5c3-0.3,3.3,0.1,3.9,3.3c-4.7,0.3-9.3,0.7-14,0.9c-3.5,0.1-5.5,1.2-6.4,5.1c-5.8,24.4-12,48.7-18,73
	C382.1,256.8,382,259.2,381.6,261.8z"/>
<path class="st0" d="M303.5,233.7c5.9-18.7,11.7-37.5,17.8-56.1c1.3-4.1,3.3-4.8,6.6-3.5c-4.2,12.5-8.4,24.9-12.5,37.3
	c0.3,0.1,0.5,0.3,0.8,0.4c1.4-2.1,2.8-4.2,4.4-6.3c1.4-1.9,3.4-4.2,5.8-2.8c1.7,1,3.1,3.6,3.3,5.6c0.7,6.1-0.6,11.9-4.6,16.7
	c-3.3,4-7.2,3.8-10.1-0.6c4.7,1.8,6.3-1.3,7.4-4.4c1.3-3.7,1.9-7.7,2.8-11.5c-0.4-0.2-0.8-0.5-1.1-0.7c-1.1,0.8-2.2,1.4-3.2,2.4
	c-5.4,5.4-8.5,12-9.9,19.5c-0.6,3.5-2.8,4.9-6.2,4.6c-0.1,0-0.2-0.1-0.3-0.2C304.1,233.9,303.8,233.8,303.5,233.7z"/>
<path class="st0" d="M505.6,190.1c-4.2,7.9-8.9,15.4-16.5,20.5c-2.7,1.8-5.9,2.3-8.9,0.7c-3.1-1.7-3.9-4.7-3.8-8
	c0.3-7.8,4.2-13.5,10.4-17.8c1.2-0.8,2.7-1.4,4.1-1.4c1.4,0.1,3.2,0.7,3.9,1.8c0.6,0.9,0.4,3.2-0.3,3.9c-2.9,2.7-6,5.2-9.4,7.3
	c-2.6,1.6-4.8,6-3.2,8.6c0.6,0.9,2.5,1.5,3.6,1.3c5.5-0.9,9.4-4.5,12.8-8.6c2.4-2.8,4.4-5.9,6.5-8.9
	C505.2,189.7,505.4,189.9,505.6,190.1z M492.2,189.4c-0.3-0.4-0.6-0.7-1-1.1c-2.2,2-4.4,4-6.7,6c0.3,0.3,0.6,0.7,0.9,1
	C487.7,193.3,489.9,191.4,492.2,189.4z"/>
<path class="st0" d="M409.9,185.3c-1.5,1.1-2.5,2.4-3.3,2.3c-0.9-0.1-1.7-1.4-2.5-2.1c0.8-0.8,1.4-2.1,2.3-2.2
	C407.3,183.2,408.3,184.3,409.9,185.3z"/>
<path class="st0" d="M411.5,184.5c1.3-1.1,2.2-2.3,2.8-2.2c1,0.2,1.9,1.3,2.8,2c-0.8,0.8-1.5,2.1-2.3,2.2
	C414,186.6,413,185.5,411.5,184.5z"/>
</svg>
